<?xml version="1.0" standalone="no"?>
<!DOCTYPE svg PUBLIC "-//W3C//DTD SVG 20010904//EN"
 "http://www.w3.org/TR/2001/REC-SVG-20010904/DTD/svg10.dtd">
<svg version="1.0" xmlns="http://www.w3.org/2000/svg"
 width="600.000000pt" height="327.000000pt" viewBox="0 0 600.000000 327.000000"
 preserveAspectRatio="xMidYMid meet">
<g transform="translate(0.000000,327.000000) scale(0.100000,-0.100000)"
fill="#000000" stroke="none">
<path d="M2842 2654 c-20 -14 -22 -23 -22 -115 0 -96 1 -100 20 -94 17 5 20 2
20 -24 0 -31 0 -31 -55 -31 l-55 0 0 -105 c0 -58 5 -113 11 -123 8 -14 -11
-65 -98 -259 l-108 -242 -47 -1 c-38 0 -48 -4 -48 -16 0 -14 7 -16 40 -11 22
3 40 4 40 2 0 -1 -29 -66 -64 -143 l-64 -140 6 -124 c3 -68 7 -116 10 -108 3
8 56 127 117 263 l113 248 101 2 101 2 0 -32 c0 -23 5 -33 15 -33 10 0 15 10
15 33 l0 32 101 -1 102 -1 72 -159 c40 -88 90 -195 111 -239 l39 -80 3 124 c2
97 -1 128 -13 147 -13 21 -13 24 2 33 17 9 16 12 -4 55 -16 31 -27 44 -37 40
-10 -4 -22 8 -35 35 -12 22 -21 42 -21 45 0 3 16 2 35 -1 28 -4 35 -2 35 10 0
11 -12 17 -41 19 l-42 3 -109 239 c-73 162 -105 243 -98 250 6 6 10 60 10 123
l0 113 -55 0 c-54 0 -55 1 -55 29 0 24 3 28 20 24 19 -5 20 0 20 95 0 93 -2
102 -22 116 -12 9 -27 16 -33 16 -6 0 -21 -7 -33 -16z m56 -102 c3 -82 3 -82
-23 -82 -25 0 -25 1 -25 78 0 82 4 95 30 90 12 -3 16 -21 18 -86z m72 -285 l0
-93 -48 -54 -48 -53 -47 55 -47 55 0 92 0 91 95 0 95 0 0 -93z m-332 -612
l-193 -429 -3 59 c-3 56 2 69 147 389 82 182 162 358 176 390 26 59 26 59 46
40 19 -20 18 -23 -173 -449z m332 455 c0 -11 116 -272 245 -550 72 -156 76
-168 73 -226 l-3 -62 -182 406 c-172 382 -182 407 -166 424 18 20 33 24 33 8z
m-105 -70 c5 -8 11 -7 21 1 8 6 16 10 18 8 3 -3 161 -350 174 -381 2 -4 -39
-8 -92 -8 l-96 0 0 30 c0 20 -5 30 -15 30 -10 0 -15 -10 -15 -30 l0 -30 -95 0
-94 0 50 113 c28 61 67 149 86 195 36 80 45 92 58 72z"/>
<path d="M2853 2319 c-50 -19 -32 -99 23 -99 40 0 67 45 46 76 -14 21 -47 32
-69 23z m45 -43 c4 -21 -14 -37 -35 -29 -14 5 -18 35 -6 47 12 12 38 1 41 -18z"/>
<path d="M3625 2364 c-64 -65 -95 -214 -102 -498 l-6 -220 41 -35 40 -36 -9
-185 c-8 -172 -8 -187 9 -210 24 -32 74 -38 100 -12 18 18 19 38 15 603 -3
321 -6 590 -8 597 -6 17 -61 15 -80 -4z m63 -387 l3 -377 -39 0 c-27 0 -47 8
-71 28 -33 27 -34 32 -39 109 -10 171 30 480 73 562 19 38 45 63 59 58 8 -3
12 -111 14 -380z m2 -412 c0 -10 -11 -15 -35 -15 -24 0 -35 5 -35 15 0 10 11
15 35 15 24 0 35 -5 35 -15z m0 -210 c0 -152 -1 -165 -19 -175 -24 -12 -47 -4
-56 18 -3 9 -3 86 1 170 l7 152 33 0 34 0 0 -165z"/>
<path d="M3637 1878 c2 -104 7 -174 13 -176 6 -2 10 59 10 172 0 134 -3 176
-12 176 -10 0 -12 -40 -11 -172z"/>
<path d="M2197 2323 c-18 -114 -37 -352 -32 -387 8 -48 26 -79 72 -122 39 -37
39 -24 19 -414 -14 -264 -13 -292 18 -312 22 -15 73 -8 91 12 18 20 18 33 5
318 -19 389 -21 355 28 405 22 23 46 55 51 70 15 39 13 136 -7 311 -23 206
-38 203 -47 -11 -9 -200 -21 -192 -31 20 -4 104 -10 147 -18 144 -10 -3 -19
-109 -25 -284 0 -24 -5 -43 -9 -43 -5 0 -12 73 -16 162 -6 157 -9 178 -23 165
-5 -6 -21 -210 -22 -299 -1 -16 -5 -28 -11 -28 -6 0 -11 65 -12 162 -2 108 -7
163 -14 165 -6 2 -14 -13 -17 -34z m27 -312 c27 -23 46 -2 48 53 l2 51 3 -47
c7 -89 62 -94 64 -6 l1 53 10 -53 c9 -52 29 -75 48 -56 5 5 10 42 11 82 3 98
17 78 19 -28 4 -156 5 -154 -50 -215 l-50 -55 0 -78 c1 -42 7 -189 14 -327 13
-237 13 -251 -4 -269 -21 -22 -56 -14 -65 14 -3 10 2 158 10 328 15 284 15
313 1 341 -9 17 -27 38 -40 46 -52 34 -66 113 -48 266 l7 64 3 -77 c2 -48 8
-80 16 -87z"/>
<path d="M2920 1273 c-108 -6 -306 -33 -356 -48 -28 -8 -59 -24 -69 -35 -17
-19 -17 -21 -1 -39 88 -97 972 -119 1293 -32 82 22 95 62 31 91 -51 23 -68 25
-68 7 0 -8 18 -19 40 -26 48 -14 51 -26 8 -39 -223 -68 -814 -82 -1137 -26
-147 25 -175 47 -90 72 87 25 247 43 452 49 164 5 207 9 207 19 0 11 -26 14
-127 12 -71 -1 -153 -3 -183 -5z"/>
<path d="M3340 1265 c0 -9 28 -15 101 -20 55 -4 103 -4 106 -1 15 15 -18 24
-109 29 -77 4 -98 3 -98 -8z"/>
<path d="M2885 1219 c-110 -11 -155 -25 -155 -48 0 -28 62 -39 266 -52 125 -7
230 -7 353 0 189 12 235 19 223 37 -5 8 -22 9 -57 3 -95 -16 -426 -22 -580
-10 -240 18 -213 34 87 51 95 6 188 7 207 4 26 -5 33 -4 29 7 -6 17 -242 22
-373 8z"/>
<path d="M3340 1217 c0 -11 21 -16 88 -21 48 -4 97 -10 110 -13 17 -4 21 -2
16 10 -6 16 -31 22 -146 32 -56 5 -68 4 -68 -8z"/>
<path d="M2590 750 c0 -118 0 -120 23 -120 22 0 22 2 22 120 0 118 0 120 -22
120 -23 0 -23 -2 -23 -120z"/>
<path d="M3250 750 c0 -73 4 -120 10 -120 6 0 10 25 10 55 0 59 22 95 58 95
31 0 42 -22 42 -87 0 -51 3 -63 16 -63 25 0 16 137 -11 156 -22 16 -71 19 -80
4 -14 -23 -25 -7 -25 35 0 25 -4 45 -10 45 -6 0 -10 -47 -10 -120z"/>
<path d="M1890 744 l0 -114 25 0 c23 0 24 3 27 73 l3 72 30 -52 c17 -29 32
-53 35 -53 3 0 21 25 39 55 18 30 36 55 39 55 2 0 2 -34 0 -75 -5 -73 -5 -75
19 -75 23 0 23 1 23 113 l0 113 -26 -1 c-20 -1 -33 -13 -56 -53 -16 -29 -33
-52 -36 -52 -4 0 -22 25 -39 54 -26 42 -38 54 -58 54 l-25 0 0 -114z"/>
<path d="M2738 773 c-22 -49 -46 -100 -54 -115 -13 -25 -13 -28 1 -28 9 0 21
14 26 30 11 29 13 30 78 30 65 0 67 -1 78 -30 6 -16 18 -30 27 -30 14 0 12 8
-8 49 -14 27 -39 79 -55 115 -17 36 -36 66 -42 66 -5 0 -28 -39 -51 -87z m78
0 c11 -27 21 -51 22 -55 2 -5 -21 -8 -51 -8 l-56 0 27 55 c15 30 30 55 33 55
3 0 15 -21 25 -47z"/>
<path d="M3540 821 c0 -11 -6 -22 -12 -25 -10 -5 -10 -7 0 -12 8 -4 12 -28 12
-68 0 -35 5 -67 12 -74 18 -18 68 -15 68 3 0 11 -7 14 -25 9 -25 -6 -25 -6
-25 60 0 64 1 66 25 66 14 0 25 5 25 10 0 6 -13 10 -29 10 -24 0 -28 3 -24 20
4 14 0 20 -11 20 -9 0 -16 -8 -16 -19z"/>
<path d="M4030 821 c0 -11 -6 -22 -12 -25 -10 -5 -10 -7 0 -12 8 -4 12 -28 12
-68 0 -35 5 -67 12 -74 16 -16 71 -16 65 1 -2 6 -14 11 -25 9 -20 -3 -22 1
-22 40 0 24 -3 53 -6 66 -6 19 -3 22 25 22 17 0 31 5 31 10 0 6 -13 10 -29 10
-24 0 -28 3 -24 20 4 14 0 20 -11 20 -9 0 -16 -8 -16 -19z"/>
<path d="M2243 802 c-59 -9 -83 -103 -38 -147 28 -28 89 -34 120 -12 29 22 10
37 -38 31 -32 -5 -46 -2 -56 10 -12 14 -7 16 53 16 63 0 66 1 66 24 0 50 -50
87 -107 78z m47 -47 c18 -21 9 -27 -36 -23 -36 3 -37 4 -20 21 21 21 40 22 56
2z"/>
<path d="M2422 801 c-13 -3 -23 -9 -23 -13 1 -5 1 -14 1 -22 0 -11 7 -13 28
-7 34 9 62 3 62 -12 0 -8 -15 -12 -39 -12 -47 0 -71 -19 -71 -54 0 -35 17 -51
55 -51 17 0 36 5 43 12 9 9 12 9 12 0 0 -7 11 -12 25 -12 24 0 25 2 25 64 0
46 -5 69 -17 84 -20 22 -66 33 -101 23z m68 -111 c0 -24 -48 -40 -61 -19 -11
18 8 39 37 39 17 0 24 -6 24 -20z"/>
<path d="M2940 715 c0 -69 3 -85 15 -85 11 0 15 13 15 53 0 54 19 87 48 87 7
0 12 7 12 15 0 19 -10 19 -38 -1 -20 -14 -22 -14 -22 0 0 9 -7 16 -15 16 -12
0 -15 -16 -15 -85z"/>
<path d="M3084 776 c-59 -50 -22 -146 56 -146 40 0 81 22 62 34 -6 4 -20 1
-30 -5 -27 -17 -71 -3 -84 26 -25 56 24 111 78 86 32 -14 52 -4 27 15 -28 21
-78 17 -109 -10z"/>
<path d="M3450 715 c0 -69 3 -85 15 -85 12 0 15 16 15 85 0 69 -3 85 -15 85
-12 0 -15 -16 -15 -85z"/>
<path d="M3674 776 c-59 -50 -22 -146 56 -146 42 0 81 22 61 35 -7 4 -18 2
-24 -4 -17 -17 -62 -13 -80 7 -28 31 -20 37 50 37 67 0 68 1 65 25 -4 32 -46
70 -77 70 -13 0 -36 -11 -51 -24z m84 -12 c40 -28 28 -44 -33 -44 -41 0 -55 4
-55 14 0 16 37 46 55 46 6 0 21 -7 33 -16z"/>
<path d="M3865 775 c-55 -54 -19 -145 56 -145 40 0 79 22 60 34 -6 4 -18 3
-26 -4 -23 -19 -68 -8 -84 21 -31 56 19 116 75 90 33 -15 46 -5 20 15 -30 22
-74 17 -101 -11z"/>
</g>
</svg>
